<svg height="512" viewBox="0 0 64 64" width="512" xmlns="http://www.w3.org/2000/svg"><g id="question"><path d="m15 30h-6a1 1 0 0 0 -1 1v6a1 1 0 0 0 1 1h6a1 1 0 0 0 1-1v-6a1 1 0 0 0 -1-1zm-1 6h-4v-4h4z"/><path d="m22 30a4 4 0 1 0 4 4 4 4 0 0 0 -4-4zm0 6a2 2 0 1 1 2-2 2 2 0 0 1 -2 2z"/><path d="m22 40a4 4 0 1 0 4 4 4 4 0 0 0 -4-4zm0 6a2 2 0 1 1 2-2 2 2 0 0 1 -2 2z"/><path d="m32.031 39.969a4 4 0 1 0 4 4 4 4 0 0 0 -4-4zm0 6a2 2 0 1 1 2-2 2 2 0 0 1 -2 2z"/><path d="m42.062 39.938a4 4 0 1 0 4 4 4 4 0 0 0 -4-4zm0 6a2 2 0 1 1 2-2 2 2 0 0 1 -2 2z"/><path d="m15 40h-6a1 1 0 0 0 -1 1v6a1 1 0 0 0 1 1h6a1 1 0 0 0 1-1v-6a1 1 0 0 0 -1-1zm-1 6h-4v-4h4z"/><path d="m22 50a4 4 0 1 0 4 4 4 4 0 0 0 -4-4zm0 6a2 2 0 1 1 2-2 2 2 0 0 1 -2 2z"/><path d="m32.031 49.969a4 4 0 1 0 4 4 4 4 0 0 0 -4-4zm0 6a2 2 0 1 1 2-2 2 2 0 0 1 -2 2z"/><path d="m42.062 49.938a4 4 0 1 0 4 4 4 4 0 0 0 -4-4zm0 6a2 2 0 1 1 2-2 2 2 0 0 1 -2 2z"/><path d="m15 50h-6a1 1 0 0 0 -1 1v6a1 1 0 0 0 1 1h6a1 1 0 0 0 1-1v-6a1 1 0 0 0 -1-1zm-1 6h-4v-4h4z"/><path d="m48.219 6.348a7.092 7.092 0 0 0 -6.582 1.177 6.968 6.968 0 0 0 -2.637 5.475 1 1 0 0 0 1 1h4a1 1 0 0 0 1-1 1 1 0 0 1 .377-.782 1.014 1.014 0 0 1 .919-.181.959.959 0 0 1 .679.725 1.012 1.012 0 0 1 -.464 1.1 7.074 7.074 0 0 0 -3.511 6.138 3 3 0 1 0 6-.077 1.1 1.1 0 0 1 .592-.913 7.076 7.076 0 0 0 2.961-8.51 6.859 6.859 0 0 0 -4.334-4.152zm.346 10.945a3.109 3.109 0 0 0 -1.565 2.707 1 1 0 0 1 -1 1 1.02 1.02 0 0 1 -1-1.077 5.06 5.06 0 0 1 2.537-4.346 3 3 0 0 0 1.4-3.211 2.945 2.945 0 0 0 -2.156-2.266 3.254 3.254 0 0 0 -.789-.1 3.011 3.011 0 0 0 -2.822 2h-2.07a4.97 4.97 0 0 1 1.785-2.911 5.077 5.077 0 0 1 4.727-.835 4.849 4.849 0 0 1 3.063 2.932 5.07 5.07 0 0 1 -2.11 6.107z"/><path d="m46 24a3 3 0 1 0 3 3 3 3 0 0 0 -3-3zm0 4a1 1 0 1 1 1-1 1 1 0 0 1 -1 1z"/><path d="m46 2a16.008 16.008 0 0 0 -15.95 15h-14.05v-2a1 1 0 0 0 -1-1h-6a1 1 0 0 0 -1 1v2h-5a1 1 0 0 0 -1 1v43a1 1 0 0 0 1 1h48a1 1 0 0 0 1-1v-28.18a15.993 15.993 0 0 0 -6-30.82zm-36 14h4v4a2 2 0 0 1 -4 0zm-6 3h4v1a4 4 0 0 0 8 0v-1h14.04a15.7 15.7 0 0 0 2.12 7h-28.16zm46 41h-46v-32h28.64l-.62 2.78a1.009 1.009 0 0 0 .32.97.988.988 0 0 0 1.01.19l3.05-1.15a16 16 0 0 0 9.6 3.21 15.561 15.561 0 0 0 4-.53zm-4-28a13.838 13.838 0 0 1 -8.8-3.12 1.026 1.026 0 0 0 -.63-.22 1.073 1.073 0 0 0 -.35.06l-1.84.7.52-2.34a.982.982 0 0 0 -.18-.81 13.868 13.868 0 0 1 -2.72-8.27 14 14 0 1 1 14 14z"/></g></svg>