<svg id="Capa_1" enable-background="new 0 0 512 512" height="512" viewBox="0 0 512 512" width="512" xmlns="http://www.w3.org/2000/svg"><g><path d="m346 0c-91.006 0-165 74.861-165 166 0 5.317.263 10.574.757 15.765-5.23-.499-10.49-.765-15.757-.765-90.993 0-166 73.861-166 165 0 91.088 74.934 166 166 166 91.006 0 165-74.861 165-166 0-5.268-.266-10.527-.765-15.757 5.191.494 10.447.757 15.765.757 90.993 0 166-73.861 166-165 0-91.088-74.934-166-166-166zm-45 346c0 74.991-60.561 136-135 136-74.99 0-136-61.009-136-136 0-74.439 61.01-135 136-135 7.306 0 14.592.6 21.761 1.765 15.821 53.442 58.032 95.653 111.475 111.475 1.164 7.167 1.764 14.453 1.764 21.76zm45-45c-74.439 0-135-60.561-135-135 0-74.991 60.561-136 135-136 74.99 0 136 61.009 136 136 0 74.439-61.01 135-136 135z"/><path d="m376 114.787-30 30-30-30-21.213 21.213 30 30-30 30 21.213 21.213 30-30 30 30 21.213-21.213-30-30 30-30z"/><path d="m151 354.787-30-30-21.213 21.213 51.213 51.213 81.213-81.213-21.213-21.213z"/></g></svg>